<svg width="20" height="21" viewBox="0 0 20 21" fill="none" xmlns="http://www.w3.org/2000/svg">
<path fill-rule="evenodd" clip-rule="evenodd" d="M14.1171 2.69995C15.2346 2.69995 16.3096 3.14162 17.1005 3.93412C17.8921 4.72495 18.3346 5.79162 18.3346 6.90828V13.4916C18.3346 15.8166 16.443 17.7 14.1171 17.7H5.88464C3.5588 17.7 1.66797 15.8166 1.66797 13.4916V6.90828C1.66797 4.58328 3.55047 2.69995 5.88464 2.69995H14.1171ZM15.443 8.14995L15.5096 8.08329C15.7088 7.84162 15.7088 7.49162 15.5005 7.24995C15.3846 7.12579 15.2255 7.04995 15.0596 7.03329C14.8846 7.02412 14.718 7.08329 14.5921 7.19995L10.8346 10.2C10.3513 10.6008 9.6588 10.6008 9.16797 10.2L5.41797 7.19995C5.1588 7.00829 4.80047 7.03329 4.58464 7.25829C4.35964 7.48328 4.33464 7.84162 4.52547 8.09162L4.63464 8.19995L8.4263 11.1583C8.89297 11.525 9.4588 11.725 10.0513 11.725C10.6421 11.725 11.218 11.525 11.6838 11.1583L15.443 8.14995Z" fill="#9E9E9E"/>
</svg>
