<svg width="28" height="29" viewBox="0 0 28 29" fill="none" xmlns="http://www.w3.org/2000/svg">
<path d="M23.334 14.8201C23.334 15.263 23.0048 15.6291 22.5777 15.6871L22.459 15.6951L4.95899 15.6951C4.47574 15.6951 4.08399 15.3033 4.08399 14.8201C4.08399 14.3771 4.41316 14.011 4.84025 13.9531L4.95899 13.9451L22.459 13.9451C22.9422 13.9451 23.334 14.3368 23.334 14.8201Z" fill="white"/>
<path d="M12.635 21.2284C12.9774 21.5694 12.9786 22.1234 12.6376 22.4658C12.3277 22.7771 11.8416 22.8064 11.4985 22.553L11.4002 22.4685L4.34186 15.4405C4.02962 15.1296 4.00121 14.6418 4.25666 14.2987L4.34181 14.2004L11.4001 7.17126C11.7426 6.83026 12.2966 6.83141 12.6376 7.17382C12.9476 7.48511 12.9748 7.97128 12.7199 8.3133L12.635 8.41126L6.19964 14.8208L12.635 21.2284Z" fill="white"/>
</svg>
